<svg width="16" height="16" viewBox="0 0 16 16" fill="none" xmlns="http://www.w3.org/2000/svg">
<g clip-path="url(#clip0_4001_86)">
<path d="M4.66675 6.44475C4.66675 5.97319 4.85407 5.52095 5.18751 5.18751C5.52095 4.85407 5.97319 4.66675 6.44475 4.66675H12.2221C12.4556 4.66675 12.6868 4.71274 12.9025 4.80209C13.1182 4.89144 13.3142 5.02241 13.4793 5.18751C13.6444 5.35261 13.7754 5.54862 13.8647 5.76434C13.9541 5.98005 14.0001 6.21126 14.0001 6.44475V12.2221C14.0001 12.4556 13.9541 12.6868 13.8647 12.9025C13.7754 13.1182 13.6444 13.3142 13.4793 13.4793C13.3142 13.6444 13.1182 13.7754 12.9025 13.8647C12.6868 13.9541 12.4556 14.0001 12.2221 14.0001H6.44475C6.21126 14.0001 5.98005 13.9541 5.76434 13.8647C5.54862 13.7754 5.35261 13.6444 5.18751 13.4793C5.02241 13.3142 4.89144 13.1182 4.80209 12.9025C4.71274 12.6868 4.66675 12.4556 4.66675 12.2221V6.44475Z" stroke="#A3A3A3" stroke-width="1.33333" stroke-linecap="round" stroke-linejoin="round"/>
<path d="M2.67467 11.158C2.47023 11.0415 2.30018 10.873 2.18172 10.6697C2.06325 10.4663 2.00057 10.2353 2 10V3.33333C2 2.6 2.6 2 3.33333 2H10C10.5 2 10.772 2.25667 11 2.66667" stroke="#A3A3A3" stroke-width="1.33333" stroke-linecap="round" stroke-linejoin="round"/>
</g>
<defs>
<clipPath id="clip0_4001_86">
<rect width="16" height="16" fill="white"/>
</clipPath>
</defs>
</svg>
