<svg width="14" height="12" viewBox="0 0 14 12" fill="none" xmlns="http://www.w3.org/2000/svg">
<path d="M1 3.33325L6.26 6.83992C6.47911 6.9861 6.7366 7.06412 7 7.06412C7.2634 7.06412 7.52089 6.9861 7.74 6.83992L13 3.33325M2.33333 10.6666H11.6667C12.0203 10.6666 12.3594 10.5261 12.6095 10.2761C12.8595 10.026 13 9.68687 13 9.33325V2.66659C13 2.31296 12.8595 1.97382 12.6095 1.72378C12.3594 1.47373 12.0203 1.33325 11.6667 1.33325H2.33333C1.97971 1.33325 1.64057 1.47373 1.39052 1.72378C1.14048 1.97382 1 2.31296 1 2.66659V9.33325C1 9.68687 1.14048 10.026 1.39052 10.2761C1.64057 10.5261 1.97971 10.6666 2.33333 10.6666Z" stroke="#A3A3A3" stroke-linecap="round" stroke-linejoin="round"/>
</svg>
