<svg width="20" height="21" viewBox="0 0 20 21" fill="none" xmlns="http://www.w3.org/2000/svg">
<path d="M11.0001 3.5C10.7349 3.5 10.4805 3.60536 10.293 3.79289C10.1054 3.98043 10.0001 4.23478 10.0001 4.5C10.0001 4.76522 10.1054 5.01957 10.293 5.20711C10.4805 5.39464 10.7349 5.5 11.0001 5.5H13.5861L7.29308 11.793C7.19757 11.8852 7.12139 11.9956 7.06898 12.1176C7.01657 12.2396 6.98898 12.3708 6.98783 12.5036C6.98668 12.6364 7.01198 12.7681 7.06226 12.891C7.11254 13.0139 7.18679 13.1255 7.28069 13.2194C7.37458 13.3133 7.48623 13.3875 7.60913 13.4378C7.73202 13.4881 7.8637 13.5134 7.99648 13.5123C8.12926 13.5111 8.26048 13.4835 8.38249 13.4311C8.50449 13.3787 8.61483 13.3025 8.70708 13.207L15.0001 6.914V9.5C15.0001 9.76522 15.1054 10.0196 15.293 10.2071C15.4805 10.3946 15.7349 10.5 16.0001 10.5C16.2653 10.5 16.5197 10.3946 16.7072 10.2071C16.8947 10.0196 17.0001 9.76522 17.0001 9.5V4.5C17.0001 4.23478 16.8947 3.98043 16.7072 3.79289C16.5197 3.60536 16.2653 3.5 16.0001 3.5H11.0001Z" fill="#1C64F2"/>
<path d="M5 5.5C4.46957 5.5 3.96086 5.71071 3.58579 6.08579C3.21071 6.46086 3 6.96957 3 7.5V15.5C3 16.0304 3.21071 16.5391 3.58579 16.9142C3.96086 17.2893 4.46957 17.5 5 17.5H13C13.5304 17.5 14.0391 17.2893 14.4142 16.9142C14.7893 16.5391 15 16.0304 15 15.5V12.5C15 12.2348 14.8946 11.9804 14.7071 11.7929C14.5196 11.6054 14.2652 11.5 14 11.5C13.7348 11.5 13.4804 11.6054 13.2929 11.7929C13.1054 11.9804 13 12.2348 13 12.5V15.5H5V7.5H8C8.26522 7.5 8.51957 7.39464 8.70711 7.20711C8.89464 7.01957 9 6.76522 9 6.5C9 6.23478 8.89464 5.98043 8.70711 5.79289C8.51957 5.60536 8.26522 5.5 8 5.5H5Z" fill="#1C64F2"/>
</svg>
