<?xml version="1.0" encoding="UTF-8"?>
<svg xmlns="http://www.w3.org/2000/svg" xmlns:xlink="http://www.w3.org/1999/xlink" width="250px" height="72px" viewBox="0 0 249 72" version="1.1">
<g id="surface1">
<path style=" stroke:none;fill-rule:nonzero;fill:rgb(100%,100%,100%);fill-opacity:1;" d="M 80.578125 60.316406 L 80.578125 21.179688 L 86.136719 21.179688 L 86.359375 27.027344 L 86.699219 27.027344 C 87.410156 25.113281 88.644531 23.578125 90.402344 22.414062 C 92.199219 21.253906 94.335938 20.671875 96.804688 20.671875 C 98.601562 20.671875 100.230469 21.007812 101.691406 21.683594 C 103.1875 22.359375 104.480469 23.351562 105.566406 24.664062 C 106.652344 25.976562 107.472656 27.589844 108.035156 29.5 C 108.636719 31.414062 108.933594 33.605469 108.933594 36.082031 C 108.933594 39.378906 108.429688 42.171875 107.417969 44.460938 C 106.40625 46.746094 104.984375 48.488281 103.152344 49.691406 C 101.355469 50.851562 99.238281 51.433594 96.804688 51.433594 C 95.195312 51.433594 93.699219 51.171875 92.3125 50.644531 C 90.964844 50.121094 89.804688 49.390625 88.832031 48.453125 C 87.894531 47.476562 87.183594 46.351562 86.699219 45.078125 L 86.359375 45.078125 L 86.359375 60.316406 Z M 94.785156 46.652344 C 96.429688 46.652344 97.871094 46.257812 99.109375 45.472656 C 100.34375 44.683594 101.296875 43.503906 101.972656 41.929688 C 102.683594 40.355469 103.039062 38.40625 103.039062 36.082031 C 103.039062 33.71875 102.683594 31.769531 101.972656 30.230469 C 101.296875 28.65625 100.34375 27.476562 99.109375 26.6875 C 97.871094 25.863281 96.429688 25.453125 94.785156 25.453125 C 92.988281 25.453125 91.453125 25.882812 90.179688 26.746094 C 88.945312 27.570312 88.007812 28.675781 87.371094 30.0625 C 86.734375 31.414062 86.417969 32.855469 86.417969 34.394531 L 86.417969 37.710938 C 86.417969 38.875 86.585938 40 86.921875 41.085938 C 87.296875 42.136719 87.839844 43.089844 88.550781 43.953125 C 89.261719 44.777344 90.140625 45.433594 91.191406 45.921875 C 92.238281 46.410156 93.4375 46.652344 94.785156 46.652344 Z M 115.070312 50.925781 L 115.070312 9.929688 L 120.851562 9.929688 L 120.851562 50.925781 Z M 139.277344 51.433594 C 137.066406 51.433594 135.160156 51 133.550781 50.140625 C 131.941406 49.238281 130.703125 47.910156 129.84375 46.148438 C 129.019531 44.347656 128.609375 42.136719 128.609375 39.511719 L 128.609375 21.179688 L 134.390625 21.179688 L 134.390625 38.050781 C 134.390625 39.886719 134.617188 41.441406 135.066406 42.714844 C 135.550781 43.992188 136.320312 44.964844 137.367188 45.640625 C 138.414062 46.277344 139.761719 46.597656 141.410156 46.597656 C 143.058594 46.597656 144.480469 46.203125 145.679688 45.414062 C 146.914062 44.628906 147.867188 43.523438 148.542969 42.097656 C 149.214844 40.671875 149.554688 39.0625 149.554688 37.261719 L 149.554688 21.179688 L 155.335938 21.179688 L 155.335938 50.925781 L 149.832031 50.925781 L 149.554688 44.910156 L 149.214844 44.910156 C 148.46875 46.933594 147.195312 48.527344 145.398438 49.691406 C 143.601562 50.851562 141.558594 51.433594 139.277344 51.433594 Z M 163.160156 50.925781 L 163.160156 21.179688 L 168.664062 21.179688 L 168.890625 27.082031 L 169.226562 27.082031 C 170.050781 24.984375 171.339844 23.410156 173.101562 22.359375 C 174.898438 21.273438 176.882812 20.726562 179.054688 20.726562 C 181.226562 20.726562 183.171875 21.253906 184.894531 22.304688 C 186.652344 23.351562 187.90625 25.152344 188.65625 27.703125 L 189.105469 27.703125 C 189.929688 25.378906 191.277344 23.632812 193.148438 22.472656 C 195.054688 21.308594 197.191406 20.726562 199.550781 20.726562 C 201.496094 20.726562 203.238281 21.140625 204.769531 21.964844 C 206.34375 22.789062 207.578125 24.121094 208.476562 25.957031 C 209.375 27.796875 209.824219 30.230469 209.824219 33.269531 L 209.824219 50.925781 L 204.097656 50.925781 L 204.097656 34.449219 C 204.097656 32.425781 203.855469 30.757812 203.367188 29.445312 C 202.878906 28.09375 202.152344 27.101562 201.179688 26.464844 C 200.203125 25.828125 198.933594 25.507812 197.359375 25.507812 C 195.75 25.507812 194.347656 25.921875 193.148438 26.746094 C 191.949219 27.570312 191.015625 28.675781 190.339844 30.0625 C 189.703125 31.414062 189.386719 32.949219 189.386719 34.675781 L 189.386719 50.925781 L 183.601562 50.925781 L 183.601562 34.449219 C 183.601562 32.425781 183.359375 30.757812 182.871094 29.445312 C 182.386719 28.09375 181.652344 27.101562 180.679688 26.464844 C 179.707031 25.828125 178.453125 25.507812 176.917969 25.507812 C 175.273438 25.507812 173.851562 25.921875 172.652344 26.746094 C 171.453125 27.570312 170.519531 28.675781 169.84375 30.0625 C 169.207031 31.414062 168.890625 32.949219 168.890625 34.675781 L 168.890625 50.925781 Z M 229.96875 51.433594 C 227.011719 51.433594 224.445312 50.8125 222.277344 49.578125 C 220.140625 48.300781 218.496094 46.523438 217.335938 44.234375 C 216.175781 41.910156 215.59375 39.230469 215.59375 36.191406 C 215.59375 33.042969 216.175781 30.308594 217.335938 27.984375 C 218.496094 25.65625 220.121094 23.878906 222.21875 22.640625 C 224.355469 21.367188 226.863281 20.726562 229.746094 20.726562 C 233 20.726562 235.679688 21.460938 237.773438 22.921875 C 239.90625 24.347656 241.445312 26.3125 242.378906 28.824219 C 243.316406 31.300781 243.632812 34.09375 243.335938 37.207031 L 221.320312 37.207031 C 221.359375 39.230469 221.734375 40.972656 222.445312 42.433594 C 223.15625 43.859375 224.148438 44.945312 225.421875 45.695312 C 226.730469 46.445312 228.246094 46.820312 229.96875 46.820312 C 231.953125 46.820312 233.636719 46.371094 235.023438 45.472656 C 236.40625 44.535156 237.289062 43.296875 237.660156 41.761719 L 243.167969 41.761719 C 242.902344 43.710938 242.171875 45.414062 240.976562 46.878906 C 239.777344 48.300781 238.226562 49.425781 236.316406 50.253906 C 234.441406 51.039062 232.328125 51.433594 229.96875 51.433594 Z M 221.378906 33.945312 L 220.816406 33.101562 L 238.226562 33.101562 L 237.660156 34.054688 C 237.738281 31.992188 237.417969 30.324219 236.707031 29.050781 C 236.035156 27.738281 235.078125 26.78125 233.84375 26.183594 C 232.648438 25.582031 231.261719 25.285156 229.6875 25.285156 C 228.042969 25.285156 226.601562 25.640625 225.363281 26.351562 C 224.128906 27.027344 223.175781 28.019531 222.5 29.332031 C 221.828125 30.644531 221.453125 32.179688 221.378906 33.945312 Z M 221.378906 33.945312 "/>
<path style=" stroke:none;fill-rule:nonzero;fill:rgb(100%,100%,100%);fill-opacity:0.94902;" d="M 60.160156 11.691406 L 60.160156 31.773438 L 50.132812 21.734375 Z M 60.160156 11.691406 "/>
<path style=" stroke:none;fill-rule:nonzero;fill:rgb(100%,100%,100%);fill-opacity:1;" d="M 60.160156 11.691406 L 40.105469 11.691406 L 50.132812 21.734375 Z M 60.160156 11.691406 "/>
<path style=" stroke:none;fill-rule:nonzero;fill:rgb(100%,100%,100%);fill-opacity:0.74902;" d="M 30.082031 21.734375 L 30.082031 41.816406 L 20.054688 31.773438 Z M 30.082031 21.734375 "/>
<path style=" stroke:none;fill-rule:nonzero;fill:rgb(100%,100%,100%);fill-opacity:0.54902;" d="M 20.054688 31.773438 L 20.054688 51.859375 L 10.027344 41.816406 Z M 20.054688 31.773438 "/>
<path style=" stroke:none;fill-rule:nonzero;fill:rgb(100%,100%,100%);fill-opacity:0.85098;" d="M 40.109375 31.773438 L 60.160156 31.773438 L 50.132812 21.734375 Z M 40.109375 31.773438 "/>
<path style=" stroke:none;fill-rule:nonzero;fill:rgb(100%,100%,100%);fill-opacity:0.701961;" d="M 30.082031 41.816406 L 50.132812 41.816406 L 40.109375 31.773438 Z M 30.082031 41.816406 "/>
<path style=" stroke:none;fill-rule:nonzero;fill:rgb(100%,100%,100%);fill-opacity:0.501961;" d="M 20.054688 51.859375 L 40.105469 51.859375 L 30.082031 41.816406 Z M 20.054688 51.859375 "/>
<path style=" stroke:none;fill-rule:nonzero;fill:rgb(100%,100%,100%);fill-opacity:0.8;" d="M 60.160156 31.773438 L 40.105469 31.773438 L 50.132812 41.816406 Z M 60.160156 31.773438 "/>
<path style=" stroke:none;fill-rule:nonzero;fill:rgb(100%,100%,100%);fill-opacity:0.65098;" d="M 50.132812 41.816406 L 30.082031 41.816406 L 40.105469 51.859375 Z M 50.132812 41.816406 "/>
<path style=" stroke:none;fill-rule:nonzero;fill:rgb(100%,100%,100%);fill-opacity:0.45098;" d="M 40.109375 51.859375 L 20.054688 51.859375 L 30.082031 61.898438 Z M 40.109375 51.859375 "/>
<path style=" stroke:none;fill-rule:nonzero;fill:rgb(100%,100%,100%);fill-opacity:0.901961;" d="M 40.109375 31.773438 L 40.109375 11.691406 L 50.132812 21.734375 Z M 40.109375 31.773438 "/>
<path style=" stroke:none;fill-rule:nonzero;fill:rgb(100%,100%,100%);fill-opacity:0.8;" d="M 30.082031 41.816406 L 30.082031 21.734375 L 40.109375 31.773438 Z M 30.082031 41.816406 "/>
<path style=" stroke:none;fill-rule:nonzero;fill:rgb(100%,100%,100%);fill-opacity:0.6;" d="M 20.054688 51.859375 L 20.054688 31.773438 L 30.082031 41.816406 Z M 20.054688 51.859375 "/>
<path style=" stroke:none;fill-rule:evenodd;fill:rgb(97.254902%,97.254902%,97.254902%);fill-opacity:0.301961;" d="M 30.078125 61.898438 L 12.820312 61.898438 L 5.277344 66.65625 L 10.027344 61.898438 L 11.910156 60.011719 L 20.054688 51.859375 Z M 30.078125 61.898438 "/>
<path style=" stroke:none;fill-rule:evenodd;fill:rgb(97.647059%,97.647059%,97.647059%);fill-opacity:0.4;" d="M 10.027344 59.101562 L 10.027344 41.816406 L 20.054688 51.859375 L 11.910156 60.011719 L 5.277344 66.65625 Z M 10.027344 59.101562 "/>
</g>
</svg>
