<svg width="1237" height="351" viewBox="0 0 1237 351" fill="none" xmlns="http://www.w3.org/2000/svg">
<path d="M401.47 288.724V93.9952H429.169L430.288 123.093H431.967C435.511 113.58 441.666 105.933 450.432 100.15C459.385 94.3682 470.017 91.4771 482.328 91.4771C491.281 91.4771 499.394 93.1558 506.669 96.5132C514.129 99.8706 520.564 104.813 525.974 111.342C531.383 117.87 535.486 125.89 538.284 135.403C541.268 144.916 542.761 155.827 542.761 168.137C542.761 184.551 540.242 198.447 535.206 209.825C530.17 221.203 523.083 229.876 513.943 235.845C504.99 241.627 494.451 244.518 482.328 244.518C474.307 244.518 466.846 243.212 459.945 240.601C453.23 237.99 447.448 234.353 442.598 229.69C437.935 224.84 434.392 219.244 431.967 212.903H430.288V288.724H401.47ZM472.255 220.737C480.462 220.737 487.643 218.778 493.799 214.861C499.954 210.944 504.71 205.069 508.068 197.235C511.611 189.401 513.383 179.702 513.383 168.137C513.383 156.387 511.611 146.688 508.068 139.04C504.71 131.206 499.954 125.331 493.799 121.414C487.643 117.31 480.462 115.259 472.255 115.259C463.302 115.259 455.655 117.404 449.313 121.694C443.158 125.797 438.495 131.299 435.324 138.201C432.153 144.916 430.568 152.097 430.568 159.744V176.251C430.568 182.033 431.407 187.629 433.086 193.038C434.951 198.261 437.656 203.017 441.2 207.307C444.743 211.41 449.127 214.675 454.349 217.099C459.572 219.524 465.541 220.737 472.255 220.737ZM573.329 242V38.0387H602.146V242H573.329ZM693.941 244.518C682.937 244.518 673.424 242.373 665.404 238.083C657.383 233.607 651.228 226.985 646.938 218.219C642.834 209.265 640.783 198.261 640.783 185.204V93.9952H669.6V177.93C669.6 187.069 670.719 194.81 672.958 201.152C675.382 207.494 679.206 212.343 684.429 215.7C689.651 218.871 696.366 220.457 704.573 220.457C712.78 220.457 719.868 218.498 725.836 214.581C731.992 210.664 736.748 205.162 740.105 198.074C743.463 190.986 745.141 182.966 745.141 174.013V93.9952H773.959V242H746.54L745.141 212.063H743.463C739.732 222.135 733.391 230.063 724.438 235.845C715.485 241.627 705.319 244.518 693.941 244.518ZM812.947 242V93.9952H840.366L841.485 123.372H843.164C847.267 112.927 853.702 105.093 862.469 99.8706C871.422 94.4615 881.307 91.7569 892.126 91.7569C902.944 91.7569 912.643 94.3682 921.223 99.5908C929.989 104.813 936.238 113.766 939.968 126.45H942.207C946.31 114.886 953.025 106.212 962.351 100.43C971.863 94.648 982.495 91.7569 994.246 91.7569C1003.95 91.7569 1012.62 93.8087 1020.27 97.9121C1028.1 102.016 1034.25 108.637 1038.73 117.777C1043.21 126.916 1045.45 139.04 1045.45 154.148V242H1016.91V160.024C1016.91 149.952 1015.7 141.651 1013.27 135.123C1010.85 128.408 1007.21 123.466 1002.36 120.295C997.51 117.124 991.168 115.538 983.335 115.538C975.314 115.538 968.32 117.59 962.351 121.694C956.382 125.797 951.719 131.299 948.362 138.201C945.191 144.916 943.605 152.563 943.605 161.143V242H914.788V160.024C914.788 149.952 913.576 141.651 911.151 135.123C908.726 128.408 905.089 123.466 900.239 120.295C895.39 117.124 889.141 115.538 881.494 115.538C873.287 115.538 866.199 117.59 860.23 121.694C854.262 125.797 849.599 131.299 846.241 138.201C843.07 144.916 841.485 152.563 841.485 161.143V242H812.947ZM1145.81 244.518C1131.08 244.518 1118.3 241.44 1107.48 235.285C1096.85 228.943 1088.64 220.084 1082.86 208.706C1077.08 197.142 1074.19 183.805 1074.19 168.697C1074.19 153.029 1077.08 139.413 1082.86 127.849C1088.64 116.284 1096.76 107.425 1107.2 101.27C1117.83 94.9278 1130.33 91.7569 1144.69 91.7569C1160.92 91.7569 1174.26 95.3941 1184.7 102.668C1195.33 109.756 1202.98 119.549 1207.64 132.046C1212.31 144.356 1213.89 158.252 1212.4 173.733H1102.73C1102.91 183.805 1104.78 192.479 1108.32 199.753C1111.86 206.841 1116.81 212.25 1123.15 215.98C1129.68 219.711 1137.23 221.576 1145.81 221.576C1155.7 221.576 1164.09 219.338 1170.99 214.861C1177.89 210.198 1182.28 204.043 1184.14 196.395H1211.56C1210.25 206.095 1206.62 214.581 1200.65 221.856C1194.68 228.943 1186.94 234.539 1177.43 238.643C1168.1 242.56 1157.56 244.518 1145.81 244.518ZM1103 157.506L1100.21 153.309H1186.94L1184.14 158.065C1184.51 147.807 1182.93 139.506 1179.39 133.165C1176.03 126.636 1171.27 121.88 1165.12 118.896C1159.15 115.911 1152.25 114.419 1144.41 114.419C1136.21 114.419 1129.02 116.191 1122.87 119.735C1116.71 123.093 1111.96 128.035 1108.6 134.564C1105.24 141.092 1103.38 148.739 1103 157.506Z" fill="#111928"/>
<path d="M299.749 50.8833L299.749 150.8L249.791 100.842L299.749 50.8833Z" fill="#111928" fill-opacity="0.95"/>
<path d="M299.749 50.8833L199.833 50.8833L249.791 100.842L299.749 50.8833Z" fill="#111928"/>
<path d="M149.876 100.842L149.876 200.759L99.9177 150.8L149.876 100.842Z" fill="#111928" fill-opacity="0.75"/>
<path d="M99.9189 150.801L99.9189 250.718L49.9607 200.76L99.9189 150.801Z" fill="#111928" fill-opacity="0.55"/>
<path d="M199.834 150.8L299.75 150.8L249.792 100.841L199.834 150.8Z" fill="#111928" fill-opacity="0.85"/>
<path d="M149.876 200.759L249.792 200.759L199.834 150.801L149.876 200.759Z" fill="#111928" fill-opacity="0.7"/>
<path d="M99.9189 250.716L199.835 250.716L149.877 200.758L99.9189 250.716Z" fill="#111928" fill-opacity="0.5"/>
<path d="M299.749 150.8L199.833 150.8L249.791 200.758L299.749 150.8Z" fill="#111928" fill-opacity="0.8"/>
<path d="M249.791 200.759L149.875 200.759L199.833 250.717L249.791 200.759Z" fill="#111928" fill-opacity="0.65"/>
<path d="M199.834 250.716L99.9175 250.716L149.876 300.675L199.834 250.716Z" fill="#111928" fill-opacity="0.45"/>
<path d="M199.834 150.8L199.834 50.8835L249.792 100.842L199.834 150.8Z" fill="#111928" fill-opacity="0.9"/>
<path d="M149.876 200.759L149.876 100.842L199.834 150.801L149.876 200.759Z" fill="#111928" fill-opacity="0.8"/>
<path d="M99.9189 250.716L99.9189 150.8L149.877 200.758L99.9189 250.716Z" fill="#111928" fill-opacity="0.6"/>
<path fill-rule="evenodd" clip-rule="evenodd" d="M49.9566 300.675L49.9558 300.675L99.9141 250.717L149.872 300.675L63.877 300.675L26.292 324.34L49.9566 300.675Z" fill="#111928" fill-opacity="0.3"/>
<path fill-rule="evenodd" clip-rule="evenodd" d="M49.958 286.759V200.758L99.9162 250.717L59.3494 291.283L59.351 291.285L26.2959 324.34L49.958 286.759Z" fill="#111928" fill-opacity="0.4"/>
</svg>
