<svg width="24" height="24" viewBox="0 0 24 24" fill="none" xmlns="http://www.w3.org/2000/svg">
<g clip-path="url(#clip0_6667_779)">
<path d="M24 0H0V24H24V0Z" fill="url(#paint0_linear_6667_779)"/>
<path d="M4 7.6H5.2C11.3856 7.6 16.4 12.6144 16.4 18.8V20H18.8C19.4627 20 20 19.4627 20 18.8C20 10.6262 13.3738 4 5.2 4C4.53726 4 4 4.53726 4 5.2V7.6Z" fill="url(#paint1_radial_6667_779)"/>
<path d="M16.8 18.8H20C20 19.4628 19.4627 20 18.8 20H16.8V18.8Z" fill="url(#paint2_linear_6667_779)"/>
<path d="M5.2 4V7.2H4V5.2C4 4.53726 4.53726 4 5.2 4Z" fill="url(#paint3_linear_6667_779)"/>
<path d="M4 7.19995H5.2C11.6065 7.19995 16.8 12.3935 16.8 18.8V20H13.2V18.8C13.2 14.3817 9.61828 10.8 5.2 10.8H4V7.19995Z" fill="url(#paint4_radial_6667_779)"/>
<path d="M13.6 18.8H16.8V20H13.6V18.8Z" fill="url(#paint5_linear_6667_779)"/>
<path d="M4 10.4V7.19995H5.2V10.4H4Z" fill="url(#paint6_linear_6667_779)"/>
<path d="M4 12.3999C4 13.0626 4.53726 13.5999 5.2 13.5999C8.07188 13.5999 10.4 15.928 10.4 18.7999C10.4 19.4626 10.9373 19.9999 11.6 19.9999H13.6V18.7999C13.6 14.1607 9.8392 10.3999 5.2 10.3999H4V12.3999Z" fill="url(#paint7_radial_6667_779)"/>
<path d="M10.4 18.8H13.6V20H11.6C10.9373 20 10.4 19.4628 10.4 18.8Z" fill="url(#paint8_radial_6667_779)"/>
<path d="M5.2 13.5999C4.53726 13.5999 4 13.0626 4 12.3999V10.3999H5.2V13.5999Z" fill="url(#paint9_radial_6667_779)"/>
</g>
<defs>
<linearGradient id="paint0_linear_6667_779" x1="12" y1="0" x2="12" y2="24" gradientUnits="userSpaceOnUse">
<stop stop-color="#174299"/>
<stop offset="1" stop-color="#001E59"/>
</linearGradient>
<radialGradient id="paint1_radial_6667_779" cx="0" cy="0" r="1" gradientUnits="userSpaceOnUse" gradientTransform="translate(5.2 18.8) rotate(-90) scale(14.8)">
<stop offset="0.770277" stop-color="#FF4000"/>
<stop offset="1" stop-color="#8754C9"/>
</radialGradient>
<linearGradient id="paint2_linear_6667_779" x1="16.6" y1="19.4" x2="20" y2="19.4" gradientUnits="userSpaceOnUse">
<stop stop-color="#FF4000"/>
<stop offset="1" stop-color="#8754C9"/>
</linearGradient>
<linearGradient id="paint3_linear_6667_779" x1="4.6" y1="4" x2="4.6" y2="7.4" gradientUnits="userSpaceOnUse">
<stop stop-color="#8754C9"/>
<stop offset="1" stop-color="#FF4000"/>
</linearGradient>
<radialGradient id="paint4_radial_6667_779" cx="0" cy="0" r="1" gradientUnits="userSpaceOnUse" gradientTransform="translate(5.2 18.8) rotate(-90) scale(11.6)">
<stop offset="0.723929" stop-color="#FFF700"/>
<stop offset="1" stop-color="#FF9901"/>
</radialGradient>
<linearGradient id="paint5_linear_6667_779" x1="13.6" y1="19.4" x2="16.8" y2="19.4" gradientUnits="userSpaceOnUse">
<stop stop-color="#FFF700"/>
<stop offset="1" stop-color="#FF9901"/>
</linearGradient>
<linearGradient id="paint6_linear_6667_779" x1="4.6" y1="10.4" x2="4.6" y2="7.19995" gradientUnits="userSpaceOnUse">
<stop stop-color="#FFF700"/>
<stop offset="1" stop-color="#FF9901"/>
</linearGradient>
<radialGradient id="paint7_radial_6667_779" cx="0" cy="0" r="1" gradientUnits="userSpaceOnUse" gradientTransform="translate(5.2 18.7999) rotate(-90) scale(8.4)">
<stop offset="0.59513" stop-color="#00AAFF"/>
<stop offset="1" stop-color="#01DA40"/>
</radialGradient>
<radialGradient id="paint8_radial_6667_779" cx="0" cy="0" r="1" gradientUnits="userSpaceOnUse" gradientTransform="translate(10.2 19.4) scale(3.4 9.06666)">
<stop stop-color="#00AAFF"/>
<stop offset="1" stop-color="#01DA40"/>
</radialGradient>
<radialGradient id="paint9_radial_6667_779" cx="0" cy="0" r="1" gradientUnits="userSpaceOnUse" gradientTransform="translate(4.6 13.7999) rotate(-90) scale(3.4 64.474)">
<stop stop-color="#00AAFF"/>
<stop offset="1" stop-color="#01DA40"/>
</radialGradient>
<clipPath id="clip0_6667_779">
<rect width="24" height="24" rx="3" fill="white"/>
</clipPath>
</defs>
</svg>
