<svg width="62" height="63" viewBox="0 0 62 63" fill="none" xmlns="http://www.w3.org/2000/svg">
<g opacity="0.3">
<path d="M9.12533 31.4998C9.12533 19.4186 18.9191 9.62484 31.0003 9.62484C43.0816 9.62484 52.8753 19.4186 52.8753 31.4998C52.8753 43.5811 43.0816 53.3748 31.0003 53.3748C18.9191 53.3748 9.12533 43.5811 9.12533 31.4998Z" stroke="#17B26A" stroke-width="2.91667"/>
</g>
<g opacity="0.1">
<path d="M1.83333 31.5C1.83333 15.3917 14.8917 2.33333 31 2.33333C47.1083 2.33333 60.1667 15.3917 60.1667 31.5C60.1667 47.6083 47.1083 60.6667 31 60.6667C14.8917 60.6667 1.83333 47.6083 1.83333 31.5Z" stroke="#17B26A" stroke-width="2.91667"/>
</g>
<path d="M24.4373 31.4998L28.8123 35.8748L37.5623 27.1248M45.5832 31.4998C45.5832 39.554 39.054 46.0832 30.9998 46.0832C22.9457 46.0832 16.4165 39.554 16.4165 31.4998C16.4165 23.4457 22.9457 16.9165 30.9998 16.9165C39.054 16.9165 45.5832 23.4457 45.5832 31.4998Z" stroke="#17B26A" stroke-width="2.91667" stroke-linecap="round" stroke-linejoin="round"/>
</svg>
