<svg width="20" height="20" viewBox="0 0 20 20" fill="none" xmlns="http://www.w3.org/2000/svg">
<g clip-path="url(#clip0_4001_240)">
<path d="M16.6667 9.16658C16.4629 7.7001 15.7826 6.3413 14.7305 5.2995C13.6785 4.25769 12.3131 3.59068 10.8447 3.40121C9.37633 3.21174 7.88636 3.51032 6.60434 4.25096C5.32233 4.99159 4.31938 6.1332 3.75001 7.49992M3.33334 4.16658V7.49992H6.66668" stroke="#737373" stroke-width="1.66667" stroke-linecap="round" stroke-linejoin="round"/>
<path d="M3.33334 10.8333C3.53714 12.2997 4.21745 13.6585 5.26948 14.7003C6.3215 15.7421 7.68688 16.4092 9.15528 16.5986C10.6237 16.7881 12.1137 16.4895 13.3957 15.7489C14.6777 15.0082 15.6806 13.8666 16.25 12.4999M16.6667 15.8333V12.4999H13.3333" stroke="#737373" stroke-width="1.66667" stroke-linecap="round" stroke-linejoin="round"/>
</g>
<defs>
<clipPath id="clip0_4001_240">
<rect width="20" height="20" fill="white"/>
</clipPath>
</defs>
</svg>
